<?xml version="1.0" encoding="utf-8"?>
<!-- Generator: Adobe Illustrator 15.0.0, SVG Export Plug-In . SVG Version: 6.00 Build 0)  -->
<!DOCTYPE svg PUBLIC "-//W3C//DTD SVG 1.1//EN" "http://www.w3.org/Graphics/SVG/1.1/DTD/svg11.dtd">
<svg version="1.1" id="Layer_1" xmlns="http://www.w3.org/2000/svg" xmlns:xlink="http://www.w3.org/1999/xlink" x="0px" y="0px"
	 width="512px" height="512px" viewBox="0 0 512 512" enable-background="new 0 0 512 512" xml:space="preserve">
<path fill="none" stroke="#000000" stroke-width="16" d="M356.906,253.251h-1.931c-11.237,0-20.383,9.122-20.383,20.331v18.189
	h-2.497v-18.189c0-11.221-9.169-20.331-20.361-20.331h-1.992c-11.203,0-20.33,9.122-20.33,20.331v18.189h-2.525v-18.189
	c0-11.221-9.148-20.331-20.332-20.331h-2.025c-11.193,0-20.341,9.122-20.341,20.331v18.189h-1.327V175.569
	c0-11.29-9.127-20.471-20.462-20.471l-1.99-0.011c-11.259,0-20.427,9.18-20.427,20.482v177.794
	c-5.463-6.172-10.267-12.445-14.665-18.125c-9.786-12.66-17.476-22.686-26.163-24.68c-9.641-2.293-18.547,0.92-22.836,7.885
	c-4.023,6.608-3.411,15.715,1.681,25.58c11.141,21.316,64.684,114.951,64.715,114.951c4.23,10.239,22.913,43.713,85.804,43.713
	v-2.229l0.073,2.229c45.739,0,67.398-21.574,77.521-39.675c10.926-19.55,11.097-38.81,11.097-39.646V273.582
	C377.258,262.352,368.078,253.251,356.906,253.251z"/>
<g>
	<path fill="#EE5847" d="M139.262,190.351c0-2.792,0.143-5.551,0.412-8.272h-99.38c-4.566,0-8.27,3.703-8.27,8.271
		s3.703,8.27,8.27,8.27h99.38C139.404,195.899,139.262,193.142,139.262,190.351z"/>
	<path fill="#EE5847" d="M286.558,137.781l70.278-70.278c3.229-3.229,3.229-8.465,0-11.695c-3.229-3.229-8.466-3.23-11.695,0
		l-70.278,70.279C279.138,129.587,283.057,133.505,286.558,137.781z"/>
	<path fill="#EE5847" d="M222.289,107.319c2.793,0,5.553,0.143,8.275,0.412V8.348c0-4.567-3.702-8.27-8.27-8.27
		s-8.271,3.703-8.271,8.27v99.382C216.743,107.461,219.499,107.319,222.289,107.319z"/>
	<path fill="#EE5847" d="M158.028,137.778c3.502-4.275,7.42-8.194,11.695-11.695L99.448,55.807c-3.229-3.229-8.466-3.229-11.695,0
		s-3.229,8.466,0,11.695L158.028,137.778z"/>
	<path fill="#EE5847" d="M404.295,182.079h-99.38c0.27,2.722,0.412,5.48,0.412,8.272c0,2.791-0.143,5.548-0.412,8.268h99.38
		c4.567,0,8.27-3.702,8.27-8.27S408.862,182.079,404.295,182.079z"/>
</g>
</svg>
